# xmcd
#
# Track frame offsets: 
#        150
#        21281
#        35540
#        51527
#        70781
#        93574
#        116608
#        131354
#        150685
#        162930
#        185603
#        204859
#
# Disc length: 3035 seconds
#
# Revision: 0
# Processed by: cddbd v1.5.2PL0 Copyright (c) Steve Scherf et al.
# Submitted via: ExactAudioCopy v1.2
#
DISCID=a20bd90c
DTITLE=Stevie's Blend - The Blues Hill
DYEAR=2019
DGENRE=Blues
TTITLE0=This is My River
TTITLE1=No Fear
TTITLE2=I Found You Along My Road
TTITLE3=Prisoner in My Land
TTITLE4=Big Blue Ball
TTITLE5=Oh Daddy
TTITLE6=When I Die
TTITLE7=Guitar Boogie
TTITLE8=The Chicken Race
TTITLE9=All My Faults
TTITLE10=Prisoner in My Land (Instrumental Version)
TTITLE11=Big Blue Ball (Instrumental Version)
EXTD=
EXTT0=
EXTT1=
EXTT2=
EXTT3=
EXTT4=
EXTT5=
EXTT6=
EXTT7=
EXTT8=
EXTT9=
EXTT10=
EXTT11=
PLAYORDER=
